<svg xmlns="http://www.w3.org/2000/svg" version="1.0" width="1024.000000pt" height="768.000000pt" viewBox="0 0 1024.000000 768.000000" preserveAspectRatio="xMidYMid meet">

<g transform="translate(0.000000,768.000000) scale(0.100000,-0.100000)" fill="#ffffff" stroke="none">
<path d="M5204 5091 c-242 -66 -416 -238 -496 -491 -20 -65 -23 -95 -22 -220 0 -135 2 -152 31 -238 17 -51 49 -123 71 -160 44 -74 117 -162 135 -162 7 0 85 28 175 61 144 55 164 60 175 46 76 -98 162 -197 171 -197 6 1 56 18 111 39 55 21 102 34 103 29 13 -33 -120 -214 -182 -247 -25 -14 -31 -11 -153 71 l-128 85 -139 -75 c-120 -64 -142 -72 -162 -63 -37 16 -182 160 -229 226 -122 170 -201 416 -194 605 l2 65 -34 -3 c-127 -14 -329 -98 -449 -190 -167 -126 -342 -376 -515 -735 -67 -139 -165 -368 -165 -387 0 -4 107 32 238 80 130 48 239 86 240 84 2 -1 -21 -90 -52 -198 -31 -107 -56 -198 -56 -201 0 -3 165 -5 368 -5 l367 0 50 131 c38 101 56 137 82 160 40 35 92 39 139 10 31 -19 44 -44 113 -221 l29 -75 371 -3 371 -2 0 135 c0 149 10 184 67 236 64 60 56 59 497 59 l405 0 34 30 c69 60 126 211 127 332 0 40 4 49 30 68 84 60 169 234 186 379 l7 62 -34 -20 c-95 -55 -295 -121 -416 -137 l-51 -6 -136 117 c-75 65 -135 119 -134 120 2 1 32 25 67 53 l63 51 110 -94 c60 -52 115 -95 123 -95 26 0 164 101 221 163 58 62 124 158 161 232 43 86 45 86 -121 4 -126 -62 -406 -170 -440 -169 -4 0 26 36 68 81 118 126 215 285 240 394 4 17 9 38 13 49 3 12 -17 0 -58 -34 -81 -68 -223 -162 -313 -207 -39 -19 -143 -64 -233 -99 -90 -35 -180 -72 -201 -83 -75 -38 -122 -115 -122 -198 0 -37 -6 -40 -36 -15 -32 26 -54 76 -54 124 0 50 36 133 73 167 l26 23 -29 57 c-40 78 -60 159 -67 274 l-6 97 -66 21 c-96 31 -271 36 -367 10z m879 -1155 c140 -58 100 -256 -52 -256 -74 0 -139 82 -125 156 7 41 61 100 96 107 41 8 48 7 81 -7z" fill="#ffffff"/>
<path d="M5762 3148 c-20 -20 -14 -50 27 -144 l38 -89 326 -3 325 -2 -56 125 -57 125 -295 0 c-217 0 -299 -3 -308 -12z" fill="#ffffff"/>
</g>
</svg>