<svg id="visual" viewBox="0 0 960 540" width="960" height="540" xmlns="http://www.w3.org/2000/svg" xmlns:xlink="http://www.w3.org/1999/xlink" version="1.1"><g transform="translate(8.030411658039498 529.9182947356205)"><path d="M263.9 -311.5C325.3 -263 346.8 -163.9 349.4 -72.9C352.1 18.2 335.8 101.4 299.5 181.1C263.2 260.8 206.8 337.1 132.8 363.4C58.8 389.7 -32.8 365.9 -109.1 326.5C-185.3 287.1 -246.1 232.1 -292.8 163.2C-339.5 94.3 -372.1 11.5 -364.7 -70.1C-357.3 -151.8 -309.8 -232.2 -242.3 -279.6C-174.8 -327 -87.4 -341.5 6.9 -349.8C101.2 -358 202.5 -360 263.9 -311.5" fill="#EBFC17"></path></g></svg>